<mxfile host="app.diagrams.net" modified="2021-07-07T17:59:28.546Z" agent="5.0 (Windows NT 10.0; Win64; x64) AppleWebKit/537.36 (KHTML, like Gecko) Chrome/91.0.4472.124 Safari/537.36 Edg/91.0.864.64" etag="E8NhrOir0ceUGLdgcOR3" version="14.8.5" type="github">
  <diagram id="DMuxsnHnNJkCaj9fM7GD" name="Page-1">
    <mxGraphModel dx="868" dy="482" grid="1" gridSize="10" guides="1" tooltips="1" connect="1" arrows="1" fold="1" page="1" pageScale="1" pageWidth="827" pageHeight="1169" math="0" shadow="0">
      <root>
        <mxCell id="0" />
        <mxCell id="1" parent="0" />
        <mxCell id="PZa4FUCSOLYirrOjG0FI-1" value="Estudiantes" style="shape=table;startSize=30;container=1;collapsible=1;childLayout=tableLayout;fixedRows=1;rowLines=0;fontStyle=1;align=center;resizeLast=1;" vertex="1" parent="1">
          <mxGeometry x="100" y="100" width="180" height="160" as="geometry" />
        </mxCell>
        <mxCell id="PZa4FUCSOLYirrOjG0FI-2" value="" style="shape=partialRectangle;collapsible=0;dropTarget=0;pointerEvents=0;fillColor=none;top=0;left=0;bottom=1;right=0;points=[[0,0.5],[1,0.5]];portConstraint=eastwest;" vertex="1" parent="PZa4FUCSOLYirrOjG0FI-1">
          <mxGeometry y="30" width="180" height="30" as="geometry" />
        </mxCell>
        <mxCell id="PZa4FUCSOLYirrOjG0FI-3" value="PK" style="shape=partialRectangle;connectable=0;fillColor=none;top=0;left=0;bottom=0;right=0;fontStyle=1;overflow=hidden;" vertex="1" parent="PZa4FUCSOLYirrOjG0FI-2">
          <mxGeometry width="30" height="30" as="geometry" />
        </mxCell>
        <mxCell id="PZa4FUCSOLYirrOjG0FI-4" value="estudianteId" style="shape=partialRectangle;connectable=0;fillColor=none;top=0;left=0;bottom=0;right=0;align=left;spacingLeft=6;fontStyle=5;overflow=hidden;" vertex="1" parent="PZa4FUCSOLYirrOjG0FI-2">
          <mxGeometry x="30" width="150" height="30" as="geometry" />
        </mxCell>
        <mxCell id="PZa4FUCSOLYirrOjG0FI-5" value="" style="shape=partialRectangle;collapsible=0;dropTarget=0;pointerEvents=0;fillColor=none;top=0;left=0;bottom=0;right=0;points=[[0,0.5],[1,0.5]];portConstraint=eastwest;" vertex="1" parent="PZa4FUCSOLYirrOjG0FI-1">
          <mxGeometry y="60" width="180" height="30" as="geometry" />
        </mxCell>
        <mxCell id="PZa4FUCSOLYirrOjG0FI-6" value="" style="shape=partialRectangle;connectable=0;fillColor=none;top=0;left=0;bottom=0;right=0;editable=1;overflow=hidden;" vertex="1" parent="PZa4FUCSOLYirrOjG0FI-5">
          <mxGeometry width="30" height="30" as="geometry" />
        </mxCell>
        <mxCell id="PZa4FUCSOLYirrOjG0FI-7" value="nombre" style="shape=partialRectangle;connectable=0;fillColor=none;top=0;left=0;bottom=0;right=0;align=left;spacingLeft=6;overflow=hidden;" vertex="1" parent="PZa4FUCSOLYirrOjG0FI-5">
          <mxGeometry x="30" width="150" height="30" as="geometry" />
        </mxCell>
        <mxCell id="PZa4FUCSOLYirrOjG0FI-8" value="" style="shape=partialRectangle;collapsible=0;dropTarget=0;pointerEvents=0;fillColor=none;top=0;left=0;bottom=0;right=0;points=[[0,0.5],[1,0.5]];portConstraint=eastwest;" vertex="1" parent="PZa4FUCSOLYirrOjG0FI-1">
          <mxGeometry y="90" width="180" height="30" as="geometry" />
        </mxCell>
        <mxCell id="PZa4FUCSOLYirrOjG0FI-9" value="" style="shape=partialRectangle;connectable=0;fillColor=none;top=0;left=0;bottom=0;right=0;editable=1;overflow=hidden;" vertex="1" parent="PZa4FUCSOLYirrOjG0FI-8">
          <mxGeometry width="30" height="30" as="geometry" />
        </mxCell>
        <mxCell id="PZa4FUCSOLYirrOjG0FI-10" value="apellido" style="shape=partialRectangle;connectable=0;fillColor=none;top=0;left=0;bottom=0;right=0;align=left;spacingLeft=6;overflow=hidden;" vertex="1" parent="PZa4FUCSOLYirrOjG0FI-8">
          <mxGeometry x="30" width="150" height="30" as="geometry" />
        </mxCell>
        <mxCell id="PZa4FUCSOLYirrOjG0FI-11" value="" style="shape=partialRectangle;collapsible=0;dropTarget=0;pointerEvents=0;fillColor=none;top=0;left=0;bottom=0;right=0;points=[[0,0.5],[1,0.5]];portConstraint=eastwest;" vertex="1" parent="PZa4FUCSOLYirrOjG0FI-1">
          <mxGeometry y="120" width="180" height="30" as="geometry" />
        </mxCell>
        <mxCell id="PZa4FUCSOLYirrOjG0FI-12" value="" style="shape=partialRectangle;connectable=0;fillColor=none;top=0;left=0;bottom=0;right=0;editable=1;overflow=hidden;" vertex="1" parent="PZa4FUCSOLYirrOjG0FI-11">
          <mxGeometry width="30" height="30" as="geometry" />
        </mxCell>
        <mxCell id="PZa4FUCSOLYirrOjG0FI-13" value="correo" style="shape=partialRectangle;connectable=0;fillColor=none;top=0;left=0;bottom=0;right=0;align=left;spacingLeft=6;overflow=hidden;" vertex="1" parent="PZa4FUCSOLYirrOjG0FI-11">
          <mxGeometry x="30" width="150" height="30" as="geometry" />
        </mxCell>
        <mxCell id="PZa4FUCSOLYirrOjG0FI-27" value="materias" style="shape=table;startSize=30;container=1;collapsible=1;childLayout=tableLayout;fixedRows=1;rowLines=0;fontStyle=1;align=center;resizeLast=1;" vertex="1" parent="1">
          <mxGeometry x="350" y="150" width="180" height="190" as="geometry" />
        </mxCell>
        <mxCell id="PZa4FUCSOLYirrOjG0FI-28" value="" style="shape=partialRectangle;collapsible=0;dropTarget=0;pointerEvents=0;fillColor=none;top=0;left=0;bottom=0;right=0;points=[[0,0.5],[1,0.5]];portConstraint=eastwest;" vertex="1" parent="PZa4FUCSOLYirrOjG0FI-27">
          <mxGeometry y="30" width="180" height="30" as="geometry" />
        </mxCell>
        <mxCell id="PZa4FUCSOLYirrOjG0FI-29" value="PK,FK1" style="shape=partialRectangle;connectable=0;fillColor=none;top=0;left=0;bottom=0;right=0;fontStyle=1;overflow=hidden;" vertex="1" parent="PZa4FUCSOLYirrOjG0FI-28">
          <mxGeometry width="60" height="30" as="geometry" />
        </mxCell>
        <mxCell id="PZa4FUCSOLYirrOjG0FI-30" value="materiaId" style="shape=partialRectangle;connectable=0;fillColor=none;top=0;left=0;bottom=0;right=0;align=left;spacingLeft=6;fontStyle=5;overflow=hidden;" vertex="1" parent="PZa4FUCSOLYirrOjG0FI-28">
          <mxGeometry x="60" width="120" height="30" as="geometry" />
        </mxCell>
        <mxCell id="PZa4FUCSOLYirrOjG0FI-31" value="" style="shape=partialRectangle;collapsible=0;dropTarget=0;pointerEvents=0;fillColor=none;top=0;left=0;bottom=1;right=0;points=[[0,0.5],[1,0.5]];portConstraint=eastwest;" vertex="1" parent="PZa4FUCSOLYirrOjG0FI-27">
          <mxGeometry y="60" width="180" height="30" as="geometry" />
        </mxCell>
        <mxCell id="PZa4FUCSOLYirrOjG0FI-32" value="FK2" style="shape=partialRectangle;connectable=0;fillColor=none;top=0;left=0;bottom=0;right=0;fontStyle=1;overflow=hidden;" vertex="1" parent="PZa4FUCSOLYirrOjG0FI-31">
          <mxGeometry width="60" height="30" as="geometry" />
        </mxCell>
        <mxCell id="PZa4FUCSOLYirrOjG0FI-33" value="estudianteId" style="shape=partialRectangle;connectable=0;fillColor=none;top=0;left=0;bottom=0;right=0;align=left;spacingLeft=6;fontStyle=5;overflow=hidden;" vertex="1" parent="PZa4FUCSOLYirrOjG0FI-31">
          <mxGeometry x="60" width="120" height="30" as="geometry" />
        </mxCell>
        <mxCell id="PZa4FUCSOLYirrOjG0FI-34" value="" style="shape=partialRectangle;collapsible=0;dropTarget=0;pointerEvents=0;fillColor=none;top=0;left=0;bottom=0;right=0;points=[[0,0.5],[1,0.5]];portConstraint=eastwest;" vertex="1" parent="PZa4FUCSOLYirrOjG0FI-27">
          <mxGeometry y="90" width="180" height="30" as="geometry" />
        </mxCell>
        <mxCell id="PZa4FUCSOLYirrOjG0FI-35" value="" style="shape=partialRectangle;connectable=0;fillColor=none;top=0;left=0;bottom=0;right=0;editable=1;overflow=hidden;" vertex="1" parent="PZa4FUCSOLYirrOjG0FI-34">
          <mxGeometry width="60" height="30" as="geometry" />
        </mxCell>
        <mxCell id="PZa4FUCSOLYirrOjG0FI-36" value="codigoMateria" style="shape=partialRectangle;connectable=0;fillColor=none;top=0;left=0;bottom=0;right=0;align=left;spacingLeft=6;overflow=hidden;" vertex="1" parent="PZa4FUCSOLYirrOjG0FI-34">
          <mxGeometry x="60" width="120" height="30" as="geometry" />
        </mxCell>
        <mxCell id="PZa4FUCSOLYirrOjG0FI-37" value="" style="shape=partialRectangle;collapsible=0;dropTarget=0;pointerEvents=0;fillColor=none;top=0;left=0;bottom=0;right=0;points=[[0,0.5],[1,0.5]];portConstraint=eastwest;" vertex="1" parent="PZa4FUCSOLYirrOjG0FI-27">
          <mxGeometry y="120" width="180" height="30" as="geometry" />
        </mxCell>
        <mxCell id="PZa4FUCSOLYirrOjG0FI-38" value="" style="shape=partialRectangle;connectable=0;fillColor=none;top=0;left=0;bottom=0;right=0;editable=1;overflow=hidden;" vertex="1" parent="PZa4FUCSOLYirrOjG0FI-37">
          <mxGeometry width="60" height="30" as="geometry" />
        </mxCell>
        <mxCell id="PZa4FUCSOLYirrOjG0FI-39" value="nombreMateria" style="shape=partialRectangle;connectable=0;fillColor=none;top=0;left=0;bottom=0;right=0;align=left;spacingLeft=6;overflow=hidden;" vertex="1" parent="PZa4FUCSOLYirrOjG0FI-37">
          <mxGeometry x="60" width="120" height="30" as="geometry" />
        </mxCell>
        <mxCell id="PZa4FUCSOLYirrOjG0FI-43" value="creditos" style="shape=partialRectangle;connectable=0;fillColor=none;top=0;left=0;bottom=0;right=0;align=left;spacingLeft=6;overflow=hidden;" vertex="1" parent="1">
          <mxGeometry x="414" y="300" width="120" height="30" as="geometry" />
        </mxCell>
        <mxCell id="PZa4FUCSOLYirrOjG0FI-44" value="notas" style="shape=table;startSize=30;container=1;collapsible=1;childLayout=tableLayout;fixedRows=1;rowLines=0;fontStyle=1;align=center;resizeLast=1;" vertex="1" parent="1">
          <mxGeometry x="600" y="100" width="180" height="120" as="geometry" />
        </mxCell>
        <mxCell id="PZa4FUCSOLYirrOjG0FI-45" value="" style="shape=partialRectangle;collapsible=0;dropTarget=0;pointerEvents=0;fillColor=none;top=0;left=0;bottom=0;right=0;points=[[0,0.5],[1,0.5]];portConstraint=eastwest;" vertex="1" parent="PZa4FUCSOLYirrOjG0FI-44">
          <mxGeometry y="30" width="180" height="20" as="geometry" />
        </mxCell>
        <mxCell id="PZa4FUCSOLYirrOjG0FI-46" value="PK" style="shape=partialRectangle;connectable=0;fillColor=none;top=0;left=0;bottom=0;right=0;fontStyle=1;overflow=hidden;" vertex="1" parent="PZa4FUCSOLYirrOjG0FI-45">
          <mxGeometry width="60" height="20" as="geometry" />
        </mxCell>
        <mxCell id="PZa4FUCSOLYirrOjG0FI-47" value="notaId" style="shape=partialRectangle;connectable=0;fillColor=none;top=0;left=0;bottom=0;right=0;align=left;spacingLeft=6;fontStyle=5;overflow=hidden;" vertex="1" parent="PZa4FUCSOLYirrOjG0FI-45">
          <mxGeometry x="60" width="120" height="20" as="geometry" />
        </mxCell>
        <mxCell id="PZa4FUCSOLYirrOjG0FI-48" value="" style="shape=partialRectangle;collapsible=0;dropTarget=0;pointerEvents=0;fillColor=none;top=0;left=0;bottom=1;right=0;points=[[0,0.5],[1,0.5]];portConstraint=eastwest;" vertex="1" parent="PZa4FUCSOLYirrOjG0FI-44">
          <mxGeometry y="50" width="180" height="30" as="geometry" />
        </mxCell>
        <mxCell id="PZa4FUCSOLYirrOjG0FI-49" value="FK2" style="shape=partialRectangle;connectable=0;fillColor=none;top=0;left=0;bottom=0;right=0;fontStyle=1;overflow=hidden;" vertex="1" parent="PZa4FUCSOLYirrOjG0FI-48">
          <mxGeometry width="60" height="30" as="geometry" />
        </mxCell>
        <mxCell id="PZa4FUCSOLYirrOjG0FI-50" value="materiaId" style="shape=partialRectangle;connectable=0;fillColor=none;top=0;left=0;bottom=0;right=0;align=left;spacingLeft=6;fontStyle=5;overflow=hidden;" vertex="1" parent="PZa4FUCSOLYirrOjG0FI-48">
          <mxGeometry x="60" width="120" height="30" as="geometry" />
        </mxCell>
        <mxCell id="PZa4FUCSOLYirrOjG0FI-51" value="" style="shape=partialRectangle;collapsible=0;dropTarget=0;pointerEvents=0;fillColor=none;top=0;left=0;bottom=0;right=0;points=[[0,0.5],[1,0.5]];portConstraint=eastwest;" vertex="1" parent="PZa4FUCSOLYirrOjG0FI-44">
          <mxGeometry y="80" width="180" height="30" as="geometry" />
        </mxCell>
        <mxCell id="PZa4FUCSOLYirrOjG0FI-52" value="" style="shape=partialRectangle;connectable=0;fillColor=none;top=0;left=0;bottom=0;right=0;editable=1;overflow=hidden;" vertex="1" parent="PZa4FUCSOLYirrOjG0FI-51">
          <mxGeometry width="60" height="30" as="geometry" />
        </mxCell>
        <mxCell id="PZa4FUCSOLYirrOjG0FI-53" value="notas" style="shape=partialRectangle;connectable=0;fillColor=none;top=0;left=0;bottom=0;right=0;align=left;spacingLeft=6;overflow=hidden;" vertex="1" parent="PZa4FUCSOLYirrOjG0FI-51">
          <mxGeometry x="60" width="120" height="30" as="geometry" />
        </mxCell>
        <mxCell id="PZa4FUCSOLYirrOjG0FI-57" value="" style="edgeStyle=entityRelationEdgeStyle;fontSize=12;html=1;endArrow=ERoneToMany;exitX=1;exitY=0.5;exitDx=0;exitDy=0;entryX=0;entryY=0.5;entryDx=0;entryDy=0;curved=1;" edge="1" parent="1" source="PZa4FUCSOLYirrOjG0FI-2" target="PZa4FUCSOLYirrOjG0FI-31">
          <mxGeometry width="100" height="100" relative="1" as="geometry">
            <mxPoint x="310" y="290" as="sourcePoint" />
            <mxPoint x="410" y="190" as="targetPoint" />
          </mxGeometry>
        </mxCell>
        <mxCell id="PZa4FUCSOLYirrOjG0FI-60" value="" style="edgeStyle=entityRelationEdgeStyle;fontSize=12;html=1;endArrow=ERmandOne;startArrow=ERmandOne;strokeColor=#000000;entryX=0;entryY=0.5;entryDx=0;entryDy=0;" edge="1" parent="1" source="PZa4FUCSOLYirrOjG0FI-28" target="PZa4FUCSOLYirrOjG0FI-48">
          <mxGeometry width="100" height="100" relative="1" as="geometry">
            <mxPoint x="510" y="270" as="sourcePoint" />
            <mxPoint x="610" y="170" as="targetPoint" />
          </mxGeometry>
        </mxCell>
      </root>
    </mxGraphModel>
  </diagram>
</mxfile>
